<svg width="24" height="24" viewBox="0 0 24 24" fill="none" xmlns="http://www.w3.org/2000/svg">
    <path
        d="M11.6552 21.8252H5.99269C4.19795 21.8252 2.7377 20.3649 2.7377 18.5702V9.48545H21.2627V12.2177C21.2627 12.5904 21.5649 12.8927 21.9377 12.8927C22.3104 12.8927 22.6127 12.5904 22.6127 12.2177V6.55519C22.6127 4.0157 20.5472 1.9502 18.0077 1.9502H17.6484V1.5002C17.6484 1.12745 17.3462 0.825195 16.9734 0.825195C16.6007 0.825195 16.2984 1.12745 16.2984 1.5002V1.9502H7.70194V1.5002C7.70194 1.12745 7.3997 0.825195 7.02695 0.825195C6.6542 0.825195 6.35194 1.12745 6.35194 1.5002V1.9502H5.99269C3.4532 1.9502 1.3877 4.0157 1.3877 6.55519V18.5702C1.3877 21.1097 3.4532 23.1752 5.99269 23.1752H11.6552C12.0279 23.1752 12.3302 22.8729 12.3302 22.5002C12.3302 22.1274 12.0279 21.8252 11.6552 21.8252ZM5.99269 3.3002H6.35194V3.7487C6.35194 4.12145 6.6542 4.42369 7.02695 4.42369C7.3997 4.42369 7.70194 4.12145 7.70194 3.7487V3.3002H16.2984V3.7487C16.2984 4.12145 16.6007 4.42369 16.9734 4.42369C17.3462 4.42369 17.6484 4.12145 17.6484 3.7487V3.3002H18.0077C19.8024 3.3002 21.2627 4.76044 21.2627 6.55519V8.13544H2.7377V6.55519C2.7377 4.76044 4.19795 3.3002 5.99269 3.3002Z"
        fill="#087c7c" />
    <path
        d="M7.77521 12.7607H6.71846C6.34571 12.7607 6.04346 13.063 6.04346 13.4357C6.04346 13.8085 6.34571 14.1107 6.71846 14.1107H7.77521C8.14796 14.1107 8.45021 13.8085 8.45021 13.4357C8.45021 13.063 8.14796 12.7607 7.77521 12.7607Z"
        fill="#087c7c" />
    <path
        d="M12.5286 12.7607H11.4719C11.0991 12.7607 10.7969 13.063 10.7969 13.4357C10.7969 13.8085 11.0991 14.1107 11.4719 14.1107H12.5286C12.9014 14.1107 13.2036 13.8085 13.2036 13.4357C13.2036 13.063 12.9014 12.7607 12.5286 12.7607Z"
        fill="#087c7c" />
    <path
        d="M7.77521 17.2002H6.71846C6.34571 17.2002 6.04346 17.5024 6.04346 17.8752C6.04346 18.2479 6.34571 18.5502 6.71846 18.5502H7.77521C8.14796 18.5502 8.45021 18.2479 8.45021 17.8752C8.45021 17.5024 8.14796 17.2002 7.77521 17.2002Z"
        fill="#087c7c" />
    <path
        d="M17.8754 13.7002C15.2632 13.7002 13.1377 15.8249 13.1377 18.4379C13.1377 21.0502 15.2624 23.1749 17.8754 23.1749C20.4877 23.1749 22.6124 21.0502 22.6124 18.4379C22.6124 15.8249 20.4877 13.7002 17.8754 13.7002ZM17.8754 21.8249C16.0072 21.8249 14.4877 20.3054 14.4877 18.4372C14.4877 16.5689 16.0072 15.0494 17.8754 15.0494C19.7429 15.0494 21.2632 16.5689 21.2632 18.4372C21.2632 20.3054 19.7429 21.8249 17.8754 21.8249Z"
        fill="#087c7c" />
    <path
        d="M18.5507 18.158V16.5275C18.5507 16.1548 18.2484 15.8525 17.8757 15.8525C17.5029 15.8525 17.2007 16.1548 17.2007 16.5275V18.437C17.2007 18.6163 17.2719 18.788 17.3987 18.914L18.3047 19.82C18.4367 19.952 18.6092 20.018 18.7817 20.018C18.9542 20.018 19.1267 19.952 19.2587 19.82C19.5227 19.5568 19.5227 19.1293 19.2587 18.866L18.5507 18.158Z"
        fill="#087c7c" />
</svg>