<svg width="32" height="32" viewBox="0 0 32 32" fill="none" xmlns="http://www.w3.org/2000/svg">
    <g clip-path="url(#clip0_6386_3350)">
        <path
            d="M30.5453 27.6365H29.0908V13.1622L29.7521 13.5925C29.997 13.7519 30.272 13.828 30.5439 13.828C31.0195 13.828 31.4858 13.595 31.7645 13.1666C32.2027 12.4932 32.0119 11.5923 31.3385 11.1541L16.7933 1.69034C16.3109 1.37666 15.6889 1.37666 15.2068 1.69034L0.661476 11.1541C-0.0119611 11.5922 -0.202524 12.4932 0.235476 13.1666C0.673601 13.84 1.57454 14.0307 2.24798 13.5926L2.9091 13.1623V27.6366H1.4546C0.651414 27.6366 0.000101344 28.2878 0.000101344 29.0911C0.000101344 29.8943 0.651414 30.5456 1.4546 30.5456H4.36366H13.0909H18.909H27.6362H30.5452C31.3486 30.5456 31.9997 29.8943 31.9997 29.0911C31.9998 28.2877 31.3487 27.6365 30.5453 27.6365ZM20.3636 27.6365H18.9091H17.4546H14.5455H13.091H11.6365V19.3942C11.6365 18.5908 12.2879 17.9397 13.091 17.9397H18.9092C19.7125 17.9397 20.3637 18.5909 20.3637 19.3942V27.6365H20.3636Z"
            fill="white" />
    </g>
    <defs>
        <clipPath id="clip0_6386_3350">
            <rect width="32" height="32" fill="white" />
        </clipPath>
    </defs>
</svg>