<svg width="32" height="32" viewBox="0 0 32 32" fill="none" xmlns="http://www.w3.org/2000/svg">
<g clip-path="url(#clip0_6390_2851)">
<path d="M14.125 25.75H17.875V32H14.125V25.75Z" fill="white"/>
<path d="M9.4375 0.9375V32H12.25V24.8125C12.25 24.2947 12.6697 23.875 13.1875 23.875H18.8125C19.3303 23.875 19.75 24.2947 19.75 24.8125V32H22.5625V0.9375C22.5625 0.419678 22.1428 0 21.625 0H10.375C9.85718 0 9.4375 0.419678 9.4375 0.9375ZM13.1875 20.9375C13.1875 21.4553 12.7678 21.875 12.25 21.875C11.7322 21.875 11.3125 21.4553 11.3125 20.9375V19.6875C11.3125 19.1697 11.7322 18.75 12.25 18.75C12.7678 18.75 13.1875 19.1697 13.1875 19.6875V20.9375ZM13.1875 15.9375C13.1875 16.4553 12.7678 16.875 12.25 16.875C11.7322 16.875 11.3125 16.4553 11.3125 15.9375V14.6875C11.3125 14.1697 11.7322 13.75 12.25 13.75C12.7678 13.75 13.1875 14.1697 13.1875 14.6875V15.9375ZM13.1875 10.9375C13.1875 11.4553 12.7678 11.875 12.25 11.875C11.7322 11.875 11.3125 11.4553 11.3125 10.9375V9.6875C11.3125 9.16968 11.7322 8.75 12.25 8.75C12.7678 8.75 13.1875 9.16968 13.1875 9.6875V10.9375ZM13.1875 5.9375C13.1875 6.45532 12.7678 6.875 12.25 6.875C11.7322 6.875 11.3125 6.45532 11.3125 5.9375V4.6875C11.3125 4.16968 11.7322 3.75 12.25 3.75C12.7678 3.75 13.1875 4.16968 13.1875 4.6875V5.9375ZM16.9375 20.9375C16.9375 21.4553 16.5178 21.875 16 21.875C15.4822 21.875 15.0625 21.4553 15.0625 20.9375V19.6875C15.0625 19.1697 15.4822 18.75 16 18.75C16.5178 18.75 16.9375 19.1697 16.9375 19.6875V20.9375ZM16.9375 15.9375C16.9375 16.4553 16.5178 16.875 16 16.875C15.4822 16.875 15.0625 16.4553 15.0625 15.9375V14.6875C15.0625 14.1697 15.4822 13.75 16 13.75C16.5178 13.75 16.9375 14.1697 16.9375 14.6875V15.9375ZM16.9375 10.9375C16.9375 11.4553 16.5178 11.875 16 11.875C15.4822 11.875 15.0625 11.4553 15.0625 10.9375V9.6875C15.0625 9.16968 15.4822 8.75 16 8.75C16.5178 8.75 16.9375 9.16968 16.9375 9.6875V10.9375ZM16.9375 5.9375C16.9375 6.45532 16.5178 6.875 16 6.875C15.4822 6.875 15.0625 6.45532 15.0625 5.9375V4.6875C15.0625 4.16968 15.4822 3.75 16 3.75C16.5178 3.75 16.9375 4.16968 16.9375 4.6875V5.9375ZM20.6875 20.9375C20.6875 21.4553 20.2678 21.875 19.75 21.875C19.2322 21.875 18.8125 21.4553 18.8125 20.9375V19.6875C18.8125 19.1697 19.2322 18.75 19.75 18.75C20.2678 18.75 20.6875 19.1697 20.6875 19.6875V20.9375ZM20.6875 15.9375C20.6875 16.4553 20.2678 16.875 19.75 16.875C19.2322 16.875 18.8125 16.4553 18.8125 15.9375V14.6875C18.8125 14.1697 19.2322 13.75 19.75 13.75C20.2678 13.75 20.6875 14.1697 20.6875 14.6875V15.9375ZM20.6875 10.9375C20.6875 11.4553 20.2678 11.875 19.75 11.875C19.2322 11.875 18.8125 11.4553 18.8125 10.9375V9.6875C18.8125 9.16968 19.2322 8.75 19.75 8.75C20.2678 8.75 20.6875 9.16968 20.6875 9.6875V10.9375ZM20.6875 5.9375C20.6875 6.45532 20.2678 6.875 19.75 6.875C19.2322 6.875 18.8125 6.45532 18.8125 5.9375V4.6875C18.8125 4.16968 19.2322 3.75 19.75 3.75C20.2678 3.75 20.6875 4.16968 20.6875 4.6875V5.9375Z" fill="white"/>
<path d="M31 10H24.4375V32H31C31.5178 32 31.9375 31.5803 31.9375 31.0625V10.9375C31.9375 10.4197 31.5178 10 31 10ZM29.125 25.9375C29.125 26.4553 28.7053 26.875 28.1875 26.875C27.6697 26.875 27.25 26.4553 27.25 25.9375V24.6875C27.25 24.1697 27.6697 23.75 28.1875 23.75C28.7053 23.75 29.125 24.1697 29.125 24.6875V25.9375ZM29.125 20.9375C29.125 21.4553 28.7053 21.875 28.1875 21.875C27.6697 21.875 27.25 21.4553 27.25 20.9375V19.6875C27.25 19.1697 27.6697 18.75 28.1875 18.75C28.7053 18.75 29.125 19.1697 29.125 19.6875V20.9375ZM29.125 15.9375C29.125 16.4553 28.7053 16.875 28.1875 16.875C27.6697 16.875 27.25 16.4553 27.25 15.9375V14.6875C27.25 14.1697 27.6697 13.75 28.1875 13.75C28.7053 13.75 29.125 14.1697 29.125 14.6875V15.9375Z" fill="white"/>
<path d="M1 10C0.482178 10 0.0625 10.4197 0.0625 10.9375V31.0625C0.0625 31.5803 0.482178 32 1 32H7.5625V10H1ZM4.75 25.9375C4.75 26.4553 4.33032 26.875 3.8125 26.875C3.29468 26.875 2.875 26.4553 2.875 25.9375V24.6875C2.875 24.1697 3.29468 23.75 3.8125 23.75C4.33032 23.75 4.75 24.1697 4.75 24.6875V25.9375ZM4.75 20.9375C4.75 21.4553 4.33032 21.875 3.8125 21.875C3.29468 21.875 2.875 21.4553 2.875 20.9375V19.6875C2.875 19.1697 3.29468 18.75 3.8125 18.75C4.33032 18.75 4.75 19.1697 4.75 19.6875V20.9375ZM4.75 15.9375C4.75 16.4553 4.33032 16.875 3.8125 16.875C3.29468 16.875 2.875 16.4553 2.875 15.9375V14.6875C2.875 14.1697 3.29468 13.75 3.8125 13.75C4.33032 13.75 4.75 14.1697 4.75 14.6875V15.9375Z" fill="white"/>
</g>
<defs>
<clipPath id="clip0_6390_2851">
<rect width="32" height="32" fill="white"/>
</clipPath>
</defs>
</svg>
