<svg width="24" height="24" viewBox="0 0 24 24" fill="none" xmlns="http://www.w3.org/2000/svg">
    <path
        d="M14.8862 8.47095L12.8605 7.08945C12.3385 6.7332 11.6627 6.7332 11.1407 7.08945L9.11499 8.47095C8.69724 8.7552 8.44824 9.22695 8.44824 9.7317V12.2067C8.44824 13.0482 9.13299 13.7322 9.97449 13.7322H14.0267C14.8682 13.7322 15.553 13.0475 15.553 12.2067V9.7317C15.5522 9.22695 15.3032 8.75595 14.8862 8.47095ZM14.203 12.2067C14.203 12.3035 14.1242 12.3822 14.0267 12.3822H9.97449C9.87774 12.3822 9.79824 12.3035 9.79824 12.2067V9.7317C9.79824 9.6732 9.82749 9.6192 9.87549 9.5862L11.902 8.2047C11.9312 8.1852 11.9657 8.1747 12.0002 8.1747C12.0347 8.1747 12.0692 8.1852 12.0992 8.20545L14.1257 9.58695C14.1737 9.61995 14.203 9.67395 14.203 9.73245V12.2067Z"
        fill="#087c7c" />
    <path
        d="M18.5841 3.53795H14.7824V2.33495C14.7824 1.50245 14.1051 0.825195 13.2726 0.825195H10.7271C9.89465 0.825195 9.2174 1.50245 9.2174 2.33495V3.53795H5.41565C4.0229 3.53795 2.88965 4.67044 2.88965 6.06319V14.4947C2.88965 15.8874 4.0229 17.0207 5.41565 17.0207H9.2174V21.6654C9.2174 22.4979 9.89465 23.1752 10.7271 23.1752H13.2726C14.1051 23.1752 14.7824 22.4979 14.7824 21.6654V17.0207H18.5841C19.9769 17.0207 21.1101 15.8874 21.1101 14.4947V6.06319C21.1101 4.67119 19.9769 3.53795 18.5841 3.53795ZM10.5674 2.33495C10.5674 2.24645 10.6394 2.1752 10.7271 2.1752H13.2726C13.3611 2.1752 13.4324 2.2472 13.4324 2.33495V3.53795H10.5674V2.33495ZM13.4324 21.6654C13.4324 21.7539 13.3604 21.8252 13.2726 21.8252H10.7271C10.6386 21.8252 10.5674 21.7532 10.5674 21.6654V17.0207H13.4324V21.6654ZM19.7601 14.4947C19.7601 15.1427 19.2321 15.6707 18.5841 15.6707H5.41565C4.76765 15.6707 4.23965 15.1427 4.23965 14.4947V6.06319C4.23965 5.41519 4.76765 4.88795 5.41565 4.88795H18.5849C19.2329 4.88795 19.7609 5.41519 19.7609 6.06319L19.7601 14.4947Z"
        fill="#087c7c" />
</svg>