<svg width="24" height="24" viewBox="0 0 24 24" fill="none" xmlns="http://www.w3.org/2000/svg">
    <path
        d="M6.33223 16.1328C5.95948 16.1328 5.65723 16.4351 5.65723 16.8078C5.65723 17.1806 5.95948 17.4828 6.33223 17.4828H11.2147C11.5875 17.4828 11.8897 17.1806 11.8897 16.8078C11.8897 16.4351 11.5875 16.1328 11.2147 16.1328H6.33223Z"
        fill="#087c7c" />
    <path
        d="M16.7796 12.0002C16.7796 11.6274 16.4774 11.3252 16.1046 11.3252H6.32686C5.95411 11.3252 5.65186 11.6274 5.65186 12.0002C5.65186 12.3729 5.95411 12.6752 6.32686 12.6752H16.1046C16.4774 12.6752 16.7796 12.3729 16.7796 12.0002Z"
        fill="#087c7c" />
    <path
        d="M11.2599 21.8252H4.6074C3.44565 21.8252 2.4999 20.8794 2.4999 19.7177V7.74919H5.66565C6.99015 7.74919 8.0679 6.67144 8.0679 5.34695V2.1752H17.8224C18.9842 2.1752 19.9299 3.12095 19.9299 4.2827V12.4952C19.9299 12.8679 20.2322 13.1702 20.6049 13.1702C20.9777 13.1702 21.2799 12.8679 21.2799 12.4952V4.2827C21.2799 2.3762 19.7289 0.825195 17.8224 0.825195H6.6774C5.79465 0.825195 4.92915 1.18445 4.30215 1.80995L2.13465 3.97745C1.50915 4.60444 1.1499 5.46994 1.1499 6.35269V19.7177C1.1499 21.6242 2.7009 23.1752 4.6074 23.1752H11.2599C11.6327 23.1752 11.9349 22.8729 11.9349 22.5002C11.9349 22.1274 11.6327 21.8252 11.2599 21.8252ZM3.09015 4.9322L5.25765 2.7647C5.6319 2.39045 6.15015 2.1752 6.6774 2.1752H6.7179V5.34695C6.7179 5.92744 6.24615 6.39919 5.66565 6.39919H2.4999V6.35269C2.4999 5.82545 2.71515 5.3072 3.09015 4.9322Z"
        fill="#087c7c" />
    <path
        d="M22.0328 16.2801L19.1851 14.3391C18.5446 13.9026 17.7173 13.9026 17.0776 14.3391L14.2298 16.2808C13.7183 16.6296 13.4131 17.2078 13.4131 17.8266V21.3051C13.4131 22.3363 14.2523 23.1756 15.2836 23.1756H20.9791C22.0103 23.1756 22.8496 22.3363 22.8496 21.3051V17.8266C22.8503 17.2071 22.5451 16.6296 22.0328 16.2801ZM21.5003 21.3043C21.5003 21.5916 21.2663 21.8248 20.9798 21.8248H15.2843C14.9971 21.8248 14.7638 21.5908 14.7638 21.3043V17.8258C14.7638 17.6541 14.8493 17.4928 14.9911 17.3953L17.8388 15.4543C18.0166 15.3328 18.2476 15.3328 18.4261 15.4543L21.2731 17.3953C21.4156 17.4928 21.5011 17.6541 21.5011 17.8258L21.5003 21.3043Z"
        fill="#087c7c" />
</svg>