<svg width="24" height="24" viewBox="0 0 24 24" fill="none" xmlns="http://www.w3.org/2000/svg">
    <path
        d="M12.0001 12.0003C12.9474 12.0003 13.7146 11.2323 13.7146 10.2858C13.7146 9.33854 12.9466 8.57129 12.0001 8.57129C11.0536 8.57129 10.2856 9.33929 10.2856 10.2858C10.2856 11.2323 11.0529 12.0003 12.0001 12.0003Z"
        fill="#087c7c" />
    <path
        d="M22.9133 11.0253C21.1988 7.29556 16.8128 4.78906 12 4.78906C7.1873 4.78906 2.8013 7.29556 1.0868 11.0253C0.801797 11.6441 0.801797 12.3543 1.0868 12.9738C2.8013 16.7036 7.1873 19.2101 12 19.2101C16.8128 19.2101 21.1988 16.7036 22.9133 12.9738C23.1983 12.3551 23.1983 11.6441 22.9133 11.0253ZM15.996 10.2851C15.996 12.4886 14.2028 14.2811 12 14.2811C9.79655 14.2811 8.00405 12.4878 8.00405 10.2851C8.00405 8.08231 9.79655 6.28906 12 6.28906C14.2028 6.28906 15.996 8.08156 15.996 10.2851ZM21.5505 12.3468C20.076 15.5546 16.2375 17.7101 12 17.7101C7.76255 17.7101 3.92405 15.5546 2.44955 12.3468C2.3483 12.1263 2.3483 11.8728 2.44955 11.6523C3.37055 9.64981 5.2118 8.05756 7.49705 7.14331C6.8738 8.03431 6.5048 9.11656 6.5048 10.2843C6.5048 13.3151 8.97005 15.7803 12.0008 15.7803C15.0315 15.7803 17.4968 13.3151 17.4968 10.2843C17.4968 9.11656 17.1278 8.03431 16.5045 7.14331C18.789 8.05756 20.631 9.64981 21.552 11.6523C21.6518 11.8728 21.6518 12.1263 21.5505 12.3468Z"
        fill="#087c7c" />
</svg>