<svg width="32" height="32" viewBox="0 0 32 32" fill="none" xmlns="http://www.w3.org/2000/svg">
    <mask id="mask0_6386_3372" style="mask-type:luminance" maskUnits="userSpaceOnUse" x="0" y="0" width="32"
        height="32">
        <path d="M0 1.90735e-06H32V32H0V1.90735e-06Z" fill="white" />
    </mask>
    <g mask="url(#mask0_6386_3372)">
        <path
            d="M16 7.84473C17.5506 7.84473 18.8125 6.58285 18.8125 5.03223C18.8125 3.4816 17.5506 2.21973 16 2.21973C14.4494 2.21973 13.1875 3.4816 13.1875 5.03223C13.1875 6.58285 14.4494 7.84473 16 7.84473Z"
            fill="white" />
        <path
            d="M5.7373 19.188H4.62793C4.62918 19.5949 4.6298 20.0493 4.6298 20.2586C4.6298 20.5043 4.6323 20.9436 4.63418 21.333C5.03105 21.3311 5.48293 21.3286 5.7373 21.3286C6.37418 21.3286 6.9123 20.8386 6.9123 20.2586C6.9123 19.6786 6.37418 19.188 5.7373 19.188Z"
            fill="white" />
        <path
            d="M29.1581 19.1888H27.9637V25.5325C27.9637 25.9638 27.6144 26.3138 27.1825 26.3138C26.7512 26.3138 26.4012 25.9638 26.4012 25.5325V19.1888H25.2237C24.7919 19.1888 24.4425 18.8394 24.4425 18.4075C24.4425 17.9763 24.7919 17.6263 25.2237 17.6263H29.1581C29.5894 17.6263 29.9394 17.9763 29.9394 18.4075C29.9394 18.8394 29.5894 19.1888 29.1581 19.1888ZM22.6362 26.195C22.2687 26.31 21.8806 26.1656 21.6462 25.8275L18.2625 20.9269V25.5325C18.2625 25.9638 17.9125 26.3138 17.4812 26.3138C17.0494 26.3138 16.7 25.9638 16.7 25.5325V18.4213C16.7 18.0794 16.9219 17.7769 17.2487 17.675C17.575 17.5731 17.9294 17.6956 18.1237 17.9769L21.6712 23.1138L21.6256 18.415C21.6212 17.9838 21.9681 17.6306 22.3994 17.6263H22.4068C22.835 17.6263 23.1837 17.9713 23.1881 18.4L23.2544 25.2844C23.255 25.2869 23.255 25.29 23.255 25.2925C23.255 25.7238 23.0119 26.0781 22.6362 26.195ZM14.1994 21.1888C14.6306 21.1888 14.9806 21.5388 14.9806 21.97C14.9806 22.4013 14.6306 22.7513 14.1994 22.7513H11.975V24.7188H14.4187C14.85 24.7188 15.2 25.0681 15.2 25.5C15.2 25.9313 14.85 26.2813 14.4187 26.2813H11.1937C10.7625 26.2813 10.4125 25.9313 10.4125 25.5V18.44C10.4125 18.0088 10.7625 17.6588 11.1937 17.6588H14.4187C14.85 17.6588 15.2 18.0088 15.2 18.44C15.2 18.8719 14.85 19.2213 14.4187 19.2213H11.975V21.1888H14.1994ZM8.28062 25.0163C8.56562 25.34 8.53375 25.8338 8.21 26.1188C7.88694 26.4036 7.39319 26.3732 7.1075 26.0481L4.62312 23.2256V25.5325C4.62312 25.9638 4.27312 26.3138 3.84187 26.3138C3.41062 26.3138 3.06062 25.9638 3.06062 25.5325V18.4075C3.06062 17.9763 3.41062 17.6263 3.84187 17.6263H3.84312H3.84431H5.7375C7.24687 17.6263 8.475 18.8075 8.475 20.2594C8.475 21.5081 7.56625 22.5556 6.35125 22.8244L8.28062 25.0163ZM31.5826 14.3166L20.3394 6.80437C20.0987 7.3925 19.7412 7.92188 19.2962 8.36188L27.9722 14.1588H4.02769L12.7037 8.36188C12.2587 7.92188 11.9012 7.3925 11.6606 6.80437L0.417313 14.3166C0.165813 14.4847 0 14.7712 0 15.0963V28.8438C0 29.3612 0.42 29.7812 0.9375 29.7812H31.0625C31.58 29.7812 32 29.3612 32 28.8438V15.0963C32 14.7712 31.8341 14.4847 31.5826 14.3166Z"
            fill="white" />
    </g>
</svg>