<svg width="32" height="32" viewBox="0 0 32 32" fill="none" xmlns="http://www.w3.org/2000/svg">
    <g clip-path="url(#clip0_6386_3355)">
        <path
            d="M12.9214 23.3525V30.2634C12.9214 30.7839 13.3433 31.2058 13.8638 31.2058H18.1363C18.6568 31.2058 19.0787 30.7839 19.0787 30.2634V23.3525H12.9214Z"
            fill="white" />
        <path
            d="M16 0.794922C14.4074 0.794922 13.0934 2.01048 12.937 3.56255H19.063C18.9066 2.01042 17.5926 0.794922 16 0.794922Z"
            fill="white" />
        <path
            d="M25.2397 11.1602V15.7545C26.1429 15.3827 26.7803 14.493 26.7803 13.4574C26.7803 12.4217 26.1429 11.532 25.2397 11.1602Z"
            fill="white" />
        <path
            d="M31.0576 5.44727H0.942375C0.421938 5.44727 0 5.8692 0 6.38964V20.5255C0 21.046 0.421938 21.4679 0.942375 21.4679H31.0576C31.578 21.4679 31.9999 21.046 31.9999 20.5255V6.38964C32 5.8692 31.5781 5.44727 31.0576 5.44727ZM6.46619 12.5152C7.93025 12.5152 9.12131 13.7063 9.12131 15.1703C9.12131 16.6343 7.93025 17.8254 6.46619 17.8254H4.7535C4.23306 17.8254 3.81113 17.4035 3.81113 16.883C3.81113 16.3626 4.23306 15.9406 4.7535 15.9406H6.46619C6.89094 15.9406 7.2365 15.5951 7.2365 15.1704C7.2365 14.7456 6.89094 14.4001 6.46619 14.4001C5.00212 14.4001 3.81106 13.209 3.81106 11.745C3.81106 10.2809 5.00212 9.08983 6.46619 9.08983H8.17887C8.69931 9.08983 9.12125 9.51177 9.12125 10.0322C9.12125 10.5526 8.69931 10.9746 8.17887 10.9746H6.46619C6.04144 10.9746 5.69588 11.3201 5.69588 11.7449C5.69588 12.1696 6.04144 12.5152 6.46619 12.5152ZM15.6359 15.1703C15.6359 16.6343 14.4449 17.8254 12.9808 17.8254C11.5167 17.8254 10.3257 16.6343 10.3257 15.1703V11.745C10.3257 10.2809 11.5167 9.08983 12.9808 9.08983C14.4449 9.08983 15.6359 10.2809 15.6359 11.745V15.1703ZM21.2081 17.8254H17.7827C17.2623 17.8254 16.8403 17.4035 16.8403 16.883V10.0323C16.8403 9.51183 17.2623 9.08989 17.7827 9.08989C18.3031 9.08989 18.7251 9.51183 18.7251 10.0323V15.9406H21.208C21.7284 15.9406 22.1504 16.3625 22.1504 16.883C22.1504 17.4034 21.7286 17.8254 21.2081 17.8254ZM24.2973 17.8254C23.7769 17.8254 23.3549 17.4035 23.3549 16.883V10.0323C23.3549 9.51183 23.7769 9.08989 24.2973 9.08989C26.7057 9.08989 28.6651 11.0493 28.6651 13.4576C28.6651 15.866 26.7057 17.8254 24.2973 17.8254Z"
            fill="white" />
        <path
            d="M12.9808 10.9746C12.556 10.9746 12.2104 11.3202 12.2104 11.7449V15.1703C12.2104 15.595 12.556 15.9405 12.9808 15.9405C13.4055 15.9405 13.7511 15.595 13.7511 15.1703V11.7449C13.7511 11.3202 13.4055 10.9746 12.9808 10.9746Z"
            fill="white" />
    </g>
    <defs>
        <clipPath id="clip0_6386_3355">
            <rect width="32" height="32" fill="white" />
        </clipPath>
    </defs>
</svg>