<svg width="32" height="32" viewBox="0 0 32 32" fill="none" xmlns="http://www.w3.org/2000/svg">
    <g clip-path="url(#clip0_6388_2846)">
        <path
            d="M30.8745 19.437C30.4048 19.0845 30.1247 18.5242 30.1247 17.9372V8.78491L31.9009 5.23169C32.0464 4.94067 32.0307 4.59546 31.8596 4.31982C31.6885 4.04346 31.3872 3.875 31.0622 3.875H7.5V0.9375C7.5 0.419433 7.08056 0 6.5625 0H2.8125C2.29419 0 1.875 0.419433 1.875 0.9375V3.875H0.9375C0.419189 3.875 0 4.29419 0 4.8125V8.5625C0 9.08056 0.419189 9.5 0.9375 9.5H1.875V31.0622C1.875 31.5806 2.29419 31.9997 2.8125 31.9997H6.5625C7.08056 31.9997 7.5 31.5806 7.5 31.0622V9.5H28.2497V17.9372C28.2497 19.1111 28.81 20.2327 29.7495 20.9375C29.9883 21.116 30.1247 21.3889 30.1247 21.6872C30.1247 22.2046 29.7046 22.6247 29.1872 22.6247C28.6699 22.6247 28.2497 22.2046 28.2497 21.6872C28.2497 21.1692 27.8306 20.7497 27.3122 20.7497C26.7942 20.7497 26.3747 21.1692 26.3747 21.6872C26.3747 23.2383 27.6365 24.4997 29.1872 24.4997C30.738 24.4997 31.9997 23.2383 31.9997 21.6872C31.9997 20.8057 31.5786 19.9643 30.8745 19.437ZM3.75 1.875H5.625V3.875H3.75V1.875ZM5.625 30.1247H3.75V27.5246L5.625 29.3996V30.1247ZM5.625 26.7483L4.13818 25.2615L5.625 23.7746V26.7483ZM3.75 22.9983V19.887L5.25683 21.4914L3.75 22.9983ZM5.625 19.1443L4.23511 17.6645L5.625 16.2749V19.1443ZM3.75 15.498V12.7283L5.20288 14.0447L3.75 15.498ZM5.625 11.8962L3.75 10.197V9.49975H5.625V11.8962ZM1.875 7.625V5.75H4.29931L6.17431 7.625H1.875ZM8.4375 7.23681L6.95068 5.75H9.92431L8.4375 7.23681ZM10.7007 7.625L12.25 6.13818L13.7368 7.625H10.7007ZM16.02 7.25683L14.5132 5.75H17.6245L16.02 7.25683ZM18.3669 7.625L19.8469 6.2351L21.2366 7.625H18.3669ZM23.4668 7.20288L22.0134 5.75H24.8457L23.4668 7.20288ZM28.6077 7.625H25.6777L27.3769 5.75H29.5454L28.6077 7.625Z"
            fill="white" />
        <path d="M16.937 28.25H18.812V32H16.937V28.25Z" fill="white" />
        <path
            d="M25.4372 11.375H10.3125C9.79419 11.375 9.375 11.7942 9.375 12.3125V31.0622C9.375 31.5806 9.79419 31.9997 10.3125 31.9997H15.0625V27.3122C15.0625 26.7942 15.4817 26.3747 15.9998 26.3747H19.7498C20.2681 26.3747 20.6873 26.7942 20.6873 27.3122V31.9997H25.4372C25.9556 31.9997 26.3747 31.5806 26.3747 31.0622V12.3125C26.3747 11.7942 25.9556 11.375 25.4372 11.375ZM15.9998 24.4997H14.125C13.6067 24.4997 13.1875 24.0806 13.1875 23.5622C13.1875 23.0442 13.6067 22.6248 14.125 22.6248H15.9998C16.5181 22.6248 16.9373 23.0442 16.9373 23.5622C16.9373 24.0806 16.5181 24.4997 15.9998 24.4997ZM15.9998 20.7498H14.125C13.6067 20.7498 13.1875 20.3306 13.1875 19.8123C13.1875 19.2942 13.6067 18.8748 14.125 18.8748H15.9998C16.5181 18.8748 16.9373 19.2942 16.9373 19.8123C16.9373 20.3306 16.5181 20.7498 15.9998 20.7498ZM15.9998 16.9998H14.125C13.6067 16.9998 13.1875 16.5806 13.1875 16.0625C13.1875 15.5442 13.6067 15.125 14.125 15.125H15.9998C16.5181 15.125 16.9373 15.5442 16.9373 16.0625C16.9373 16.5806 16.5181 16.9998 15.9998 16.9998ZM21.6247 24.4997H19.7498C19.2317 24.4997 18.8123 24.0806 18.8123 23.5622C18.8123 23.0442 19.2317 22.6248 19.7498 22.6248H21.6247C22.1431 22.6248 22.5622 23.0442 22.5622 23.5622C22.5622 24.0806 22.1431 24.4997 21.6247 24.4997ZM21.6247 20.7498H19.7498C19.2317 20.7498 18.8123 20.3306 18.8123 19.8123C18.8123 19.2942 19.2317 18.8748 19.7498 18.8748H21.6247C22.1431 18.8748 22.5622 19.2942 22.5622 19.8123C22.5622 20.3306 22.1431 20.7498 21.6247 20.7498ZM21.6247 16.9998H19.7498C19.2317 16.9998 18.8123 16.5806 18.8123 16.0625C18.8123 15.5442 19.2317 15.125 19.7498 15.125H21.6247C22.1431 15.125 22.5622 15.5442 22.5622 16.0625C22.5622 16.5806 22.1431 16.9998 21.6247 16.9998Z"
            fill="white" />
    </g>
    <defs>
        <clipPath id="clip0_6388_2846">
            <rect width="32" height="32" fill="white" />
        </clipPath>
    </defs>
</svg>