<svg width="32" height="32" viewBox="0 0 32 32" fill="none" xmlns="http://www.w3.org/2000/svg">
    <path
        d="M15.9998 8.1875C13.8936 8.1875 12.1797 9.90381 12.1797 12.0139C12.1797 14.1233 13.8936 15.8401 15.9998 15.8401C18.106 15.8401 19.8198 14.1233 19.8198 12.0139C19.8198 9.90381 18.106 8.1875 15.9998 8.1875ZM17.8748 12.9875H16.2891C15.6123 12.9875 15.0623 12.437 15.0623 11.7607V10.1738C15.0623 9.65576 15.4822 9.23633 15.9998 9.23633C16.5173 9.23633 16.9373 9.65576 16.9373 10.1738V11.1125H17.8748C18.3923 11.1125 18.8123 11.5327 18.8123 12.05C18.8123 12.5681 18.3923 12.9875 17.8748 12.9875Z"
        fill="white" />
    <path
        d="M28.6106 12.165L17.3743 0.580078C17.0168 0.211182 16.5156 0 16 0C15.4844 0 14.9831 0.211182 14.6257 0.580078L3.3894 12.165C3.0288 12.5361 3.03833 13.1299 3.41015 13.4907C3.78125 13.8513 4.375 13.8418 4.73584 13.47L6.24389 11.915L7.5664 18.8481H5.93505C5.41772 18.8481 4.99755 19.2681 4.99755 19.7856C4.99755 20.3032 5.41772 20.7231 5.93505 20.7231H15.0625V24.6138C13.4475 25.032 12.2512 26.5024 12.2512 28.2476C12.2512 30.3169 13.9331 32 16 32C18.0666 32 19.7485 30.3169 19.7485 28.2476C19.7485 26.5024 18.5522 25.032 16.9373 24.6138V20.7231H26.0647C26.583 20.7231 27.0022 20.3032 27.0022 19.7856C27.0022 19.2681 26.583 18.8481 26.0647 18.8481H24.4336L25.7561 11.915L27.2642 13.47C27.448 13.6599 27.6924 13.7549 27.9373 13.7549C28.1724 13.7549 28.408 13.667 28.5898 13.4907C28.9617 13.1299 28.9712 12.5361 28.6106 12.165ZM16 17.7144C12.8601 17.7144 10.3049 15.1562 10.3049 12.0132C10.3049 8.86938 12.8601 6.31177 16 6.31177C19.1399 6.31177 21.6948 8.86938 21.6948 12.0132C21.6948 15.1562 19.1399 17.7144 16 17.7144Z"
        fill="white" />
</svg>