<svg width="24" height="25" viewBox="0 0 24 25" fill="none" xmlns="http://www.w3.org/2000/svg">
<g id="Icon Facebook" clip-path="url(#clip0_1337_7778)">
<path id="back" d="M24 12.5C24 5.87258 18.6274 0.5 12 0.5C5.37258 0.5 0 5.87258 0 12.5C0 19.1274 5.37258 24.5 12 24.5C18.6274 24.5 24 19.1274 24 12.5Z" fill="#3B5998"/>
<path id="vector" d="M11.9989 5.54297C10.2363 5.5416 8.5381 6.2052 7.24343 7.40122C5.94876 8.59725 5.15294 10.2377 5.01492 11.9948C4.87689 13.752 5.40683 15.4965 6.49888 16.88C7.59094 18.2635 9.16471 19.1841 10.9059 19.458V14.566H9.12888V12.543H10.9059V11.001C10.8677 10.6408 10.9093 10.2767 11.0275 9.93441C11.1457 9.59211 11.3378 9.27999 11.5901 9.02017C11.8424 8.76035 12.1487 8.55918 12.4874 8.43092C12.826 8.30266 13.1888 8.25045 13.5499 8.27797C14.0749 8.28537 14.5986 8.33115 15.1169 8.41497V10.137H14.2339C14.0835 10.117 13.9305 10.1312 13.7863 10.1783C13.6421 10.2255 13.5104 10.3045 13.4008 10.4094C13.2913 10.5143 13.2067 10.6426 13.1534 10.7846C13.1001 10.9267 13.0794 11.0789 13.0929 11.23V12.543H15.0339L14.7239 14.566H13.0939V19.458C14.8352 19.1841 16.4091 18.2634 17.5012 16.8796C18.5933 15.4959 19.1231 13.7511 18.9848 11.9938C18.8465 10.2365 18.0503 8.59607 16.7552 7.4002C15.4602 6.20433 13.7616 5.54109 11.9989 5.54297Z" fill="white"/>
</g>
<defs>
<clipPath id="clip0_1337_7778">
<rect width="24" height="24" fill="white" transform="translate(0 0.5)"/>
</clipPath>
</defs>
</svg>
