<svg width="24" height="25" viewBox="0 0 24 25" fill="none" xmlns="http://www.w3.org/2000/svg">
<g id="social_15528043 1" clip-path="url(#clip0_1339_10196)">
<g id="Clip path group">
<mask id="mask0_1339_10196" style="mask-type:luminance" maskUnits="userSpaceOnUse" x="0" y="0" width="24" height="25">
<g id="clip-path">
<path id="Vector" d="M12 24.5C18.6274 24.5 24 19.1274 24 12.5C24 5.87258 18.6274 0.5 12 0.5C5.37258 0.5 0 5.87258 0 12.5C0 19.1274 5.37258 24.5 12 24.5Z" fill="white"/>
</g>
</mask>
<g mask="url(#mask0_1339_10196)">
<g id="Group">
<path id="Vector_2" d="M5.15625 49.0625C19.3948 49.0625 30.9375 37.5198 30.9375 23.2812C30.9375 9.04266 19.3948 -2.5 5.15625 -2.5C-9.08234 -2.5 -20.625 9.04266 -20.625 23.2812C-20.625 37.5198 -9.08234 49.0625 5.15625 49.0625Z" fill="url(#paint0_radial_1339_10196)"/>
</g>
</g>
</g>
<path id="Vector_3" d="M15.375 10.0625C15.8928 10.0625 16.3125 9.64277 16.3125 9.125C16.3125 8.60723 15.8928 8.1875 15.375 8.1875C14.8572 8.1875 14.4375 8.60723 14.4375 9.125C14.4375 9.64277 14.8572 10.0625 15.375 10.0625Z" fill="white"/>
<path id="Vector_4" d="M12 9.5C11.4067 9.5 10.8266 9.67595 10.3333 10.0056C9.83994 10.3352 9.45543 10.8038 9.22836 11.3519C9.0013 11.9001 8.94189 12.5033 9.05765 13.0853C9.1734 13.6672 9.45912 14.2018 9.87868 14.6213C10.2982 15.0409 10.8328 15.3266 11.4147 15.4424C11.9967 15.5581 12.5999 15.4987 13.1481 15.2716C13.6962 15.0446 14.1648 14.6601 14.4944 14.1667C14.8241 13.6734 15 13.0933 15 12.5C15 11.7044 14.6839 10.9413 14.1213 10.3787C13.5587 9.81607 12.7957 9.5 12 9.5ZM12 14C11.7033 14 11.4133 13.912 11.1666 13.7472C10.92 13.5824 10.7277 13.3481 10.6142 13.074C10.5007 12.7999 10.4709 12.4983 10.5288 12.2074C10.5867 11.9164 10.7296 11.6491 10.9393 11.4393C11.1491 11.2296 11.4164 11.0867 11.7074 11.0288C11.9983 10.9709 12.2999 11.0006 12.574 11.1142C12.8481 11.2277 13.0824 11.42 13.2472 11.6666C13.412 11.9133 13.5 12.2033 13.5 12.5C13.5 12.8978 13.342 13.2794 13.0607 13.5607C12.7794 13.842 12.3978 14 12 14Z" fill="white"/>
<path id="Vector_5" d="M15.75 6.5H8.25C7.00736 6.5 6 7.50736 6 8.75V16.25C6 17.4926 7.00736 18.5 8.25 18.5H15.75C16.9926 18.5 18 17.4926 18 16.25V8.75C18 7.50736 16.9926 6.5 15.75 6.5Z" stroke="white" stroke-width="1.5" stroke-miterlimit="10"/>
</g>
<defs>
<radialGradient id="paint0_radial_1339_10196" cx="0" cy="0" r="1" gradientUnits="userSpaceOnUse" gradientTransform="translate(5.15625 23.2812) scale(25.7812)">
<stop stop-color="#FFD676"/>
<stop offset="0.25" stop-color="#F2A454"/>
<stop offset="0.38" stop-color="#F05C3C"/>
<stop offset="0.7" stop-color="#C22F86"/>
<stop offset="0.96" stop-color="#6666AD"/>
<stop offset="0.99" stop-color="#5C6CB2"/>
</radialGradient>
<clipPath id="clip0_1339_10196">
<rect width="24" height="24" fill="white" transform="translate(0 0.5)"/>
</clipPath>
</defs>
</svg>
