<svg width="24" height="25" viewBox="0 0 24 25" fill="none" xmlns="http://www.w3.org/2000/svg">
<g id="_Layer_" clip-path="url(#clip0_1339_10235)">
<path id="Vector" d="M20.4851 20.9853C25.1714 16.299 25.1714 8.70101 20.4851 4.01472C15.7988 -0.671572 8.20087 -0.671572 3.51458 4.01472C-1.17171 8.70101 -1.17171 16.299 3.51458 20.9853C8.20087 25.6716 15.7988 25.6716 20.4851 20.9853Z" fill="black"/>
<path id="Vector_2" d="M18.8934 19.8H14.7562L10.9678 14.4417L6.22561 19.8H5L10.4241 13.672L5 6H9.13723L12.7245 11.0742L17.2153 6H18.4409L13.269 11.8432L18.8942 19.8H18.8934ZM15.3329 18.944H17.2153L8.54956 6.89648H6.66715L15.3329 18.944Z" fill="white"/>
</g>
<defs>
<clipPath id="clip0_1339_10235">
<rect width="24" height="24" fill="white" transform="translate(0 0.5)"/>
</clipPath>
</defs>
</svg>
