<svg width="24" height="25" viewBox="0 0 24 25" fill="none" xmlns="http://www.w3.org/2000/svg">
<g id="video_15527986 1" clip-path="url(#clip0_1339_7798)">
<path id="Vector" d="M12 24.5C18.6274 24.5 24 19.1274 24 12.5C24 5.87258 18.6274 0.5 12 0.5C5.37258 0.5 0 5.87258 0 12.5C0 19.1274 5.37258 24.5 12 24.5Z" fill="#E21A20"/>
<path id="Vector_2" fill-rule="evenodd" clip-rule="evenodd" d="M18.4913 10.61C18.3994 9.34439 18.1688 8.03752 16.5507 7.94189C13.5188 7.76904 10.4795 7.76904 7.44756 7.94189C5.82944 8.03564 5.59881 9.34439 5.50694 10.61C5.41273 11.8683 5.41273 13.1318 5.50694 14.39C5.59881 15.6556 5.82944 16.9625 7.44756 17.0581C10.4795 17.231 13.5188 17.231 16.5507 17.0581C18.1688 16.9644 18.3994 15.6556 18.4913 14.39C18.5855 13.1318 18.5855 11.8683 18.4913 10.61ZM10.6876 14.1875V10.4375L14.2501 12.3125L10.6876 14.1875Z" fill="white"/>
</g>
<defs>
<clipPath id="clip0_1339_7798">
<rect width="24" height="24" fill="white" transform="translate(0 0.5)"/>
</clipPath>
</defs>
</svg>
