<svg width="48" height="48" viewBox="0 0 48 48" fill="none" xmlns="http://www.w3.org/2000/svg">
<path d="M43.4038 44.2825L4.57195 44.1745C2.351 44.1668 0.552734 42.3545 0.552734 40.1257V5.50614C0.552734 3.26964 2.36638 1.44959 4.595 1.4573L43.4269 1.56527C45.6478 1.57298 47.4461 3.38532 47.4461 5.61411V40.2336C47.4461 42.4701 45.6325 44.2902 43.4038 44.2825Z" fill="#282F39"/>
<path d="M43.4121 44.8378C43.4044 44.8378 43.4044 44.8378 43.3967 44.8378L4.57253 44.7299C2.05187 44.7221 0 42.6553 0 40.1257V5.50621C0 4.27228 0.476465 3.11547 1.34486 2.244C2.21326 1.38025 3.35831 0.9021 4.58021 0.9021H4.59558L43.4198 1.01007C45.9404 1.01778 47.9923 3.08462 47.9923 5.61418V40.2337C47.9923 41.4676 47.5159 42.6245 46.6475 43.4959C45.7867 44.3597 44.634 44.8378 43.4121 44.8378ZM4.5879 2.01264C3.65802 2.01264 2.78963 2.37511 2.12872 3.03063C1.46782 3.69387 1.10663 4.57305 1.10663 5.50621V40.1257C1.10663 42.0461 2.66667 43.6116 4.58021 43.6193L43.4044 43.7273H43.4121C44.342 43.7273 45.2104 43.3648 45.8713 42.7093C46.5322 42.0461 46.8934 41.1746 46.8934 40.2337V5.61418C46.8934 3.69387 45.3333 2.12832 43.4198 2.12061L4.59558 2.01264H4.5879Z" fill="#282F39"/>
<path d="M47.4461 4.71201V39.3238C47.4461 41.5681 45.6325 43.3804 43.4038 43.3727L4.57195 43.2647C2.351 43.2647 0.552734 41.4524 0.552734 39.2159V4.60404C0.552734 2.35983 2.36638 0.547488 4.595 0.5552L43.4269 0.66317C43.8419 0.66317 44.2415 0.724866 44.6104 0.84826C46.2549 1.35726 47.4461 2.89196 47.4461 4.71201Z" fill="#087C7C"/>
<path d="M40.5147 37.8899L7.58486 37.967C6.37833 37.967 5.40234 36.9876 5.40234 35.7845V11.6688C5.40234 10.4657 6.37064 9.4863 7.56949 9.4863L40.4994 9.40918C41.7059 9.40918 42.6819 10.3886 42.6819 11.5917V35.7074C42.6896 36.9105 41.7213 37.8822 40.5147 37.8899Z" fill="#282F39"/>
<path d="M7.58459 38.5219C6.85452 38.5219 6.17057 38.2365 5.65568 37.7198C5.14079 37.2031 4.85645 36.5168 4.85645 35.7841V11.6684C4.85645 10.1646 6.07835 8.93064 7.57691 8.93064L40.5068 8.85352H40.5145C41.2445 8.85352 41.9285 9.13886 42.4434 9.65557C42.9583 10.1723 43.2426 10.8587 43.2426 11.5913V35.707C43.2426 37.2108 42.0207 38.4448 40.5221 38.4448L7.58459 38.5219ZM40.5145 9.96406L7.58459 10.0412C6.69314 10.0412 5.96307 10.7738 5.96307 11.6684V35.7841C5.96307 36.216 6.13214 36.6324 6.43954 36.9332C6.74693 37.2417 7.16192 37.4191 7.59228 37.4114L40.5221 37.3342C41.4136 37.3342 42.1437 36.6016 42.1437 35.707V11.5913C42.1437 11.1594 41.9746 10.743 41.6672 10.4422C41.3521 10.1337 40.9448 9.96406 40.5145 9.96406Z" fill="#282F39"/>
<path d="M40.5147 38.3445L7.58486 38.4216C6.37833 38.4216 5.40234 37.4422 5.40234 36.2391V12.1234C5.40234 10.9203 6.37064 9.94089 7.56949 9.94089L40.4994 9.86377C41.7059 9.86377 42.6819 10.8432 42.6819 12.0463V36.162C42.6896 37.3651 41.7213 38.3445 40.5147 38.3445Z" fill="white"/>
<path d="M43.4121 43.928C43.4044 43.928 43.4044 43.928 43.3967 43.928L4.57253 43.82C2.05187 43.8123 0 41.7455 0 39.2159V4.60411C0 3.37018 0.476465 2.21337 1.34486 1.3419C2.21326 0.478149 3.36599 0 4.5879 0H4.60327L43.4275 0.107969C45.9481 0.115681 48 2.18252 48 4.71208V39.3316C48 40.5655 47.5235 41.7224 46.6551 42.5938C45.7867 43.4499 44.634 43.928 43.4121 43.928ZM43.4044 42.8175C44.3497 42.8175 45.2104 42.455 45.8713 41.7995C46.5322 41.1362 46.8934 40.2648 46.8934 39.3239V4.71208C46.8934 2.79177 45.3333 1.22622 43.4198 1.21851L4.59558 1.11054C3.68108 1.11054 2.78963 1.47301 2.12872 2.12853C1.46782 2.78406 1.10663 3.67095 1.10663 4.60411V39.2236C1.10663 41.144 2.66667 42.7095 4.58021 42.7172L43.4044 42.8175Z" fill="#282F39"/>
<path d="M7.58459 39.4238C6.85452 39.4238 6.17057 39.1384 5.65568 38.6217C5.14079 38.105 4.85645 37.4186 4.85645 36.686V12.5703C4.85645 11.0664 6.07835 9.83249 7.57691 9.83249L40.5068 9.75537H40.5145C41.2445 9.75537 41.9285 10.0407 42.4434 10.5574C42.9583 11.0741 43.2426 11.7605 43.2426 12.4932V36.6088C43.2426 38.1127 42.0207 39.3466 40.5221 39.3466L7.58459 39.4238ZM40.5145 10.8736L7.58459 10.9507C6.69314 10.9507 5.96307 11.6834 5.96307 12.578V36.6937C5.96307 37.1256 6.13214 37.542 6.43954 37.8428C6.74693 38.1513 7.15424 38.3209 7.58459 38.3209L40.5145 38.2438C41.4059 38.2438 42.136 37.5112 42.136 36.6166V12.5009C42.136 12.069 41.9669 11.6525 41.6595 11.3518C41.3521 11.0356 40.9448 10.8736 40.5145 10.8736Z" fill="#282F39"/>
<path d="M7.1624 6.30831C7.68498 6.87129 8.54569 7.09494 9.27576 6.85587C10.0058 6.61679 10.5668 5.92271 10.636 5.1515C10.7052 4.38029 10.2594 3.59366 9.57547 3.26204C7.70035 2.35201 5.64848 4.69649 7.1624 6.30831Z" fill="white"/>
<path d="M8.676 7.51163C7.96899 7.51163 7.25429 7.21857 6.76246 6.69415C5.93248 5.80726 5.85564 4.59646 6.57802 3.61703C7.20818 2.75328 8.49156 2.1286 9.81337 2.7687C10.7125 3.20058 11.2735 4.21086 11.189 5.20572C11.1044 6.18515 10.3897 7.07975 9.45218 7.38824C9.19857 7.47307 8.93729 7.51163 8.676 7.51163ZM8.69905 3.61703C8.18417 3.61703 7.72307 3.91009 7.46178 4.27256C7.31577 4.48078 6.87773 5.19801 7.56169 5.93065C7.94593 6.33939 8.5761 6.50135 9.09867 6.33168C9.62124 6.16202 10.0285 5.64531 10.0747 5.10546C10.1208 4.5579 9.80568 3.99492 9.32153 3.76356C9.11404 3.6633 8.90655 3.61703 8.69905 3.61703Z" fill="#282F39"/>
<path d="M15.669 6.30831C16.1915 6.87129 17.0522 7.09494 17.7823 6.85587C18.5124 6.61679 19.0734 5.92271 19.1425 5.1515C19.2117 4.38029 18.766 3.59366 18.082 3.26204C16.2069 2.35201 14.1627 4.69649 15.669 6.30831Z" fill="#FFC94D"/>
<path d="M17.1828 7.51163C16.4758 7.51163 15.7611 7.21857 15.2693 6.69415C14.4393 5.80726 14.3625 4.59646 15.0849 3.61703C15.715 2.75328 16.9984 2.1286 18.3202 2.7687C19.2193 3.20058 19.7803 4.21086 19.6958 5.20572C19.6113 6.18515 18.8966 7.07975 17.959 7.38824C17.7054 7.47307 17.4441 7.51163 17.1828 7.51163ZM17.2136 3.61703C16.6987 3.61703 16.2376 3.91009 15.9763 4.27256C15.8303 4.48078 15.3923 5.19801 16.0762 5.93065C16.4605 6.33939 17.0906 6.50135 17.6132 6.33168C18.1358 6.16202 18.5431 5.64531 18.5892 5.10546C18.6353 4.5579 18.3202 3.99492 17.8361 3.76356C17.6209 3.6633 17.4134 3.61703 17.2136 3.61703Z" fill="#282F39"/>
<path d="M24.1849 6.30831C24.7075 6.87129 25.5682 7.09494 26.2983 6.85587C27.0283 6.61679 27.5893 5.92271 27.6585 5.1515C27.7277 4.38029 27.2819 3.59366 26.598 3.26204C24.7152 2.35201 22.671 4.69649 24.1849 6.30831Z" fill="white"/>
<path d="M25.6906 7.51163C24.9836 7.51163 24.2689 7.21857 23.7771 6.69415C22.9471 5.80726 22.8703 4.59646 23.5927 3.61703C24.2228 2.75328 25.5062 2.1286 26.828 2.7687C27.7272 3.20058 28.2882 4.21086 28.2036 5.20572C28.1191 6.18515 27.4044 7.07975 26.4668 7.38824C26.2132 7.47307 25.9519 7.51163 25.6906 7.51163ZM24.584 5.93065C24.9683 6.33939 25.5984 6.50135 26.121 6.33168C26.6436 6.16202 27.0509 5.64531 27.097 5.10546C27.1431 4.5579 26.828 3.99492 26.3439 3.76356C25.5907 3.39338 24.8453 3.77127 24.4841 4.27256C24.3304 4.47307 23.9001 5.19801 24.584 5.93065Z" fill="#282F39"/>
<path d="M23.7466 29.9919C23.5391 29.9919 23.3393 29.8762 23.2471 29.6757C22.2865 27.6397 21.3105 25.5035 20.3653 23.4289C19.6045 21.7554 18.8129 20.0279 18.0367 18.3544L13.5949 29.5986C13.4796 29.8839 13.1568 30.0227 12.8725 29.9071C12.5881 29.7914 12.4498 29.4675 12.5651 29.1821L17.4757 16.7425C17.5603 16.5343 17.7524 16.3955 17.9753 16.3955C18.1904 16.3878 18.3979 16.5112 18.4901 16.7117C19.4508 18.7477 20.4267 20.8839 21.372 22.9585C22.3172 25.0253 23.2932 27.1615 24.2462 29.1898C24.3768 29.4675 24.2615 29.7991 23.9849 29.9302C23.908 29.9765 23.8312 29.9919 23.7466 29.9919Z" fill="#282F39"/>
<path d="M21.9635 26.3826C21.9174 26.3826 21.8713 26.3749 21.8252 26.3672C19.6811 25.8042 17.4678 25.6037 15.2623 25.7656C14.9549 25.7811 14.6936 25.5574 14.6705 25.2489C14.6475 24.9405 14.878 24.6782 15.1854 24.6551C17.5216 24.4854 19.8502 24.6937 22.1172 25.2952C22.4092 25.3723 22.5937 25.6731 22.5091 25.9739C22.4323 26.2129 22.2094 26.3826 21.9635 26.3826Z" fill="#282F39"/>
<path d="M29.5025 29.5758C29.3488 29.5758 29.1951 29.5604 29.0414 29.5295C28.1884 29.3676 27.3968 28.7506 26.928 27.8868C26.5745 27.2313 26.3824 26.437 26.3363 25.4421C26.2825 24.3007 26.4439 23.2981 26.8051 22.4575C27.2585 21.401 28.0654 20.5912 29.0183 20.2287C29.8406 19.9125 31.2393 20.0745 32.2229 20.5141C32.2076 19.1722 32.1384 17.838 32.0078 16.5115C31.977 16.203 32.1999 15.9331 32.5073 15.9023C32.807 15.8714 33.0836 16.0951 33.1144 16.4035C33.368 19.0257 33.4064 21.694 33.222 24.3238C33.1451 25.4344 33.0068 26.6992 32.3766 27.7789C31.7234 28.8817 30.5937 29.5758 29.5025 29.5758ZM30.0558 21.1696C29.8022 21.1696 29.5793 21.2005 29.4103 21.2622C28.734 21.5244 28.1576 22.1182 27.8118 22.8971C27.5198 23.5758 27.3891 24.4164 27.4352 25.3881C27.4737 26.2056 27.6197 26.8457 27.8963 27.347C28.2114 27.9254 28.7109 28.3341 29.2412 28.4344C30.1019 28.5963 30.9857 27.9408 31.4083 27.2159C31.9155 26.3444 32.0308 25.2647 32.1 24.239C32.1538 23.4293 32.1922 22.6118 32.2076 21.7943C31.8233 21.4318 30.8166 21.1696 30.0558 21.1696Z" fill="#282F39"/>
<path d="M34.3129 28.4805C33.944 28.4805 33.5828 28.4033 33.2447 28.2491C32.6299 27.9715 32.138 27.4548 31.8921 26.8224C31.7768 26.537 31.9229 26.2131 32.2072 26.1051C32.4915 25.9895 32.8143 26.136 32.9219 26.4213C33.0602 26.7761 33.3522 27.0846 33.6981 27.2388C34.0439 27.3931 34.4666 27.4085 34.8201 27.2774C35.1044 27.1694 35.4272 27.3237 35.5271 27.609C35.6347 27.8943 35.481 28.2183 35.1966 28.3185C34.92 28.4342 34.6203 28.4805 34.3129 28.4805Z" fill="#282F39"/>
<g opacity="0.1">
<path d="M47.4461 4.71218V39.324C47.4461 41.5682 45.6325 43.3806 43.4038 43.3728L4.57195 43.2649C2.351 43.2649 0.552734 41.4525 0.552734 39.216V25.7045C1.15984 25.9358 1.77464 26.1441 2.4048 26.3137C5.69394 27.2392 9.14447 27.432 12.5566 27.4628C17.1906 27.5014 21.8938 27.2392 26.2972 25.7893C32.814 23.6531 38.424 18.8793 41.5979 12.7867C43.5114 9.11578 44.5335 4.98211 44.6027 0.833008C46.2549 1.35743 47.4461 2.89213 47.4461 4.71218Z" fill="#282F39"/>
</g>
<path d="M27.3667 37.1415L25.3687 38.0284C25.0536 38.1672 24.9076 38.5451 25.0536 38.8613L28.0046 45.2546C28.1506 45.5708 28.0046 45.9564 27.6818 46.0875L24.6155 47.3908C24.3081 47.5219 23.9469 47.3831 23.8086 47.0823L20.8576 40.6967C20.7116 40.3883 20.3504 40.2494 20.043 40.3883L17.9604 41.3137C17.5224 41.5065 17.0382 41.1517 17.092 40.6736C17.4378 37.5888 17.7913 34.5039 18.1372 31.4191C18.1909 30.9641 18.6905 30.7173 19.0747 30.9641C21.8259 32.6762 24.6616 34.3343 27.4205 36.0386C27.8663 36.3008 27.8201 36.9332 27.3667 37.1415Z" fill="#282F39"/>
<path d="M24.3846 48.0003C23.9389 48.0003 23.5239 47.7458 23.3241 47.3139L20.3731 40.9283C20.3577 40.8974 20.3193 40.882 20.2886 40.8974L18.206 41.8229C17.814 41.9926 17.376 41.9463 17.0379 41.6918C16.692 41.4373 16.5153 41.0363 16.5691 40.6121L17.6142 31.3576C17.6603 30.9566 17.9063 30.6095 18.2675 30.4321C18.6286 30.2548 19.0513 30.2779 19.3971 30.4938C20.7958 31.3653 22.2482 32.2368 23.6469 33.0774C24.9918 33.8872 26.3904 34.7278 27.743 35.5684C28.1118 35.7998 28.327 36.2162 28.2963 36.6481C28.2655 37.0877 27.9966 37.4733 27.5969 37.6507L25.6065 38.5375C25.5912 38.5453 25.5758 38.5607 25.5681 38.5761C25.5604 38.5915 25.5604 38.6147 25.5681 38.6301L28.5191 45.0234C28.6575 45.3165 28.6651 45.6404 28.5499 45.9411C28.4346 46.2419 28.2117 46.4733 27.912 46.6044L24.8457 47.9077C24.692 47.9694 24.5383 48.0003 24.3846 48.0003ZM20.304 39.7792C20.7497 39.7792 21.18 40.0337 21.3722 40.4578L24.3232 46.8435C24.3385 46.8743 24.377 46.8897 24.4077 46.8743L27.474 45.571C27.4894 45.5632 27.5047 45.5478 27.5124 45.5324C27.5201 45.517 27.5201 45.4938 27.5124 45.4784L24.5614 39.0851C24.4308 38.792 24.4154 38.4758 24.5307 38.1751C24.6459 37.8743 24.8611 37.6429 25.1531 37.5118L27.1435 36.6249C27.1512 36.6172 27.182 36.6095 27.182 36.5632C27.182 36.5247 27.1589 36.5093 27.1512 36.5015C25.8064 35.6686 24.4154 34.828 23.0705 34.0183C21.6642 33.1699 20.2117 32.2985 18.8054 31.4193C18.7977 31.4116 18.7747 31.3962 18.7439 31.4116C18.7132 31.427 18.7132 31.4501 18.7055 31.4656L17.6603 40.7201C17.6603 40.7278 17.6527 40.7586 17.6911 40.7818C17.7218 40.8049 17.7449 40.7972 17.7602 40.7895L19.8429 39.864C19.9889 39.8177 20.1503 39.7792 20.304 39.7792Z" fill="#282F39"/>
<path d="M27.9966 36.8487L25.9985 37.7356C25.6835 37.8744 25.5374 38.2523 25.6835 38.5685L28.6345 44.9618C28.7805 45.278 28.6345 45.6636 28.3117 45.7947L25.2454 47.098C24.938 47.2291 24.5768 47.0903 24.4385 46.7896L21.4875 40.4039C21.3415 40.0955 20.9803 39.9566 20.6729 40.0955L18.5903 41.0209C18.1522 41.2137 17.6681 40.859 17.7219 40.3808C18.0677 37.296 18.4212 34.2111 18.767 31.1263C18.8208 30.6713 19.3203 30.4245 19.7046 30.6713C22.4558 32.3834 25.2915 34.0415 28.0504 35.7459C28.5038 36.0081 28.4577 36.6405 27.9966 36.8487Z" fill="#FFC94D"/>
<path d="M25.0154 47.7075C24.5697 47.7075 24.1547 47.453 23.9549 47.0211L21.0039 40.6355C20.9885 40.6047 20.9501 40.5892 20.9116 40.6047L18.829 41.5301C18.4371 41.6998 17.999 41.6535 17.6609 41.399C17.3151 41.1445 17.1383 40.7435 17.1921 40.3193L18.2373 31.0648C18.2834 30.6638 18.5293 30.3167 18.8905 30.1394C19.2517 29.962 19.6744 29.9851 20.0202 30.2011C21.4188 31.0725 22.8713 31.944 24.2699 32.7846C25.6148 33.5944 27.0135 34.435 28.366 35.2756C28.7349 35.507 28.9501 35.9234 28.9193 36.3553C28.8886 36.7949 28.6196 37.1805 28.22 37.3579L26.2219 38.2448C26.2065 38.2525 26.1912 38.2679 26.1835 38.2833C26.1758 38.2987 26.1758 38.3219 26.1835 38.3373L29.1345 44.7306C29.2728 45.0237 29.2805 45.3476 29.1652 45.6484C29.05 45.9491 28.8271 46.1805 28.5274 46.3116L25.4611 47.6149C25.3228 47.6766 25.1691 47.7075 25.0154 47.7075ZM20.9347 39.4864C21.3804 39.4864 21.8108 39.7409 22.0029 40.1651L24.9539 46.5507C24.9693 46.5815 25.0077 46.5969 25.0384 46.5815L28.1047 45.2782C28.1201 45.2705 28.1355 45.255 28.1431 45.2396C28.1508 45.2242 28.1508 45.2011 28.1431 45.1856L25.1921 38.7923C25.0615 38.4993 25.0461 38.1831 25.1614 37.8823C25.2767 37.5815 25.4918 37.3502 25.7839 37.219L27.7819 36.3322C27.7896 36.3244 27.8204 36.3167 27.8204 36.2705C27.8204 36.2319 27.7973 36.2165 27.7896 36.2088C26.4448 35.3759 25.0538 34.5352 23.7089 33.7255C22.3026 32.8771 20.8502 32.0057 19.4438 31.1265C19.4361 31.1188 19.4131 31.1034 19.3823 31.1188C19.3516 31.1342 19.3516 31.1573 19.3439 31.1728L18.2988 40.4273C18.2988 40.435 18.2911 40.4658 18.3295 40.489C18.3602 40.5121 18.3833 40.5044 18.3987 40.4967L20.4813 39.5712C20.6196 39.525 20.781 39.4864 20.9347 39.4864Z" fill="#282F39"/>
<path d="M39.2161 5.5065H32.0461C31.7925 5.5065 31.585 5.29828 31.585 5.04378C31.585 4.78928 31.7925 4.58105 32.0461 4.58105H39.2161C39.4697 4.58105 39.6772 4.78928 39.6772 5.04378C39.6772 5.29828 39.4697 5.5065 39.2161 5.5065Z" fill="white"/>
<path d="M42.3282 5.5065H41.8517C41.5981 5.5065 41.3906 5.29828 41.3906 5.04378C41.3906 4.78928 41.5981 4.58105 41.8517 4.58105H42.3282C42.5818 4.58105 42.7893 4.78928 42.7893 5.04378C42.7893 5.29828 42.5895 5.5065 42.3282 5.5065Z" fill="white"/>
</svg>
