<svg width="37" height="38" viewBox="0 0 37 38" fill="none" xmlns="http://www.w3.org/2000/svg">
<g clip-path="url(#clip0_3574_2292)">
<path d="M32.7467 29.1328C32.2178 30.364 31.5648 31.538 30.7976 32.6367C30.0758 33.7376 29.234 34.7551 28.2877 35.6703C27.4276 36.5301 26.2769 37.037 25.062 37.0911C24.0323 37.0461 23.0208 36.8047 22.0818 36.3798C21.0682 35.9381 19.9786 35.6972 18.8733 35.6703C17.7382 35.6928 16.6181 35.9337 15.5742 36.3798C14.6725 36.7876 13.709 37.0418 12.7236 37.1319C12.1036 37.1244 11.4916 36.9913 10.9245 36.7406C10.3574 36.4898 9.84713 36.1267 9.42443 35.6731C8.43611 34.7253 7.55492 33.6718 6.79673 32.5316C5.61347 30.835 4.6786 28.978 4.02042 27.017C3.27036 24.9049 2.87717 22.6827 2.85699 20.4414C2.79715 18.2435 3.34222 16.0714 4.4327 14.1621C5.22725 12.7835 6.36425 11.6334 7.73364 10.8231C9.08336 10.0155 10.6234 9.58083 12.1962 9.56365C13.3842 9.63419 14.5515 9.90596 15.6485 10.3674C16.5227 10.7526 17.4431 11.0234 18.3867 11.1729C19.427 10.9547 20.4436 10.6357 21.4222 10.2206C22.7316 9.69119 24.138 9.44418 25.5495 9.49569C26.8942 9.53074 28.2127 9.87492 29.403 10.5016C30.5933 11.1282 31.6233 12.0205 32.4132 13.1092C31.1605 13.775 30.118 14.7767 29.4027 16.0018C28.6875 17.227 28.3277 18.6273 28.3638 20.0455C28.3509 21.1287 28.5681 22.2023 29.0011 23.1953C29.4341 24.1883 30.073 25.078 30.8756 25.8056C31.6046 26.5031 32.4553 27.0611 33.3855 27.452C33.1843 28.0361 32.9711 28.5961 32.7458 29.1319L32.7467 29.1328ZM25.7524 1.61258C25.7291 3.48849 25.0245 5.29191 23.7699 6.68677C22.1779 8.547 20.2542 9.62255 18.162 9.4531C18.1342 9.22522 18.1202 8.99585 18.1203 8.76628C18.1837 6.86096 18.9301 5.04197 20.2234 3.64135C20.9403 2.83601 21.8109 2.182 22.784 1.71769C23.6952 1.2471 24.6918 0.964824 25.7144 0.887695C25.7404 1.12844 25.7531 1.37044 25.7524 1.61258Z" fill="black"/>
</g>
<defs>
<clipPath id="clip0_3574_2292">
<rect width="36.2442" height="36.2442" fill="white" transform="translate(0 0.887695)"/>
</clipPath>
</defs>
</svg>
