<svg width="24" height="24" viewBox="0 0 24 24" fill="unset" xmlns="http://www.w3.org/2000/svg">
<path d="M0 1.5C0 0.671573 0.671573 0 1.5 0H4.5C5.32843 0 6 0.671573 6 1.5V22.5C6 23.3284 5.32843 24 4.5 24H1.5C0.671573 24 0 23.3284 0 22.5V1.5Z" fill="unset"/>
<path d="M9 1.5C9 0.671573 9.67157 0 10.5 0H22.5C23.3284 0 24 0.671573 24 1.5V4.5C24 5.32843 23.3284 6 22.5 6H10.5C9.67157 6 9 5.32843 9 4.5V1.5Z" fill="unset"/>
<path d="M9 10.5C9 9.67157 9.67157 9 10.5 9H22.5C23.3284 9 24 9.67157 24 10.5V13.5C24 14.3284 23.3284 15 22.5 15H10.5C9.67157 15 9 14.3284 9 13.5V10.5Z" fill="unset"/>
<path d="M9 19.5C9 18.6716 9.67157 18 10.5 18H22.5C23.3284 18 24 18.6716 24 19.5V22.5C24 23.3284 23.3284 24 22.5 24H10.5C9.67157 24 9 23.3284 9 22.5V19.5Z" fill="unset"/>
</svg>
