  <svg width="33" height="48" viewBox="0 0 33 48" fill="none" xmlns="http://www.w3.org/2000/svg">
            <g clip-path="url(#clip0_462_15505)">
                <path d="M0.397016 16.3714C0.443422 8.76289 6.18233 2.12459 13.7517 0.796928C22.3884 -0.719668 30.8756 5.06586 32.4431 13.8744C32.9123 16.5093 32.505 19.0216 31.6181 21.5033C30.128 25.6752 28.0448 29.5714 25.8276 33.3961C23.2289 37.8795 20.4084 42.2199 17.4384 46.4684C17.3508 46.591 17.2683 46.7186 17.1703 46.8361C16.7578 47.311 16.268 47.3161 15.8864 46.8208C15.5564 46.3969 15.2522 45.9476 14.948 45.5033C10.9519 39.682 7.16202 33.7433 3.99092 27.4318C2.67608 24.8071 1.47983 22.1314 0.778581 19.2718C0.54655 18.322 0.366078 17.362 0.397016 16.3816V16.3714ZM16.5567 5.69395C10.7405 5.60204 5.54295 10.2846 5.55842 16.6471C5.56874 22.5705 10.5497 27.4063 16.5876 27.3808C22.6772 27.3603 27.5395 22.4582 27.5137 16.3867C27.4828 10.5093 22.5225 5.66331 16.5619 5.69395H16.5567Z" fill="#181818" />
                <ellipse cx="16.5" cy="16.6473" rx="11.55" ry="11.4383" fill="white" />
                <path d="M16.4793 21.7837C15.1541 21.7837 13.829 21.7837 12.5038 21.7837C11.7252 21.7837 11.4519 21.5386 11.4416 20.7625C11.4262 19.5165 11.4313 18.2705 11.4416 17.0297C11.4416 16.6722 11.421 16.4374 10.9415 16.4067C10.3846 16.371 10.1422 15.7735 10.4465 15.3088C10.529 15.1812 10.6424 15.0791 10.7507 14.9718C12.4058 13.3276 14.0662 11.6884 15.7265 10.0493C16.3349 9.45182 16.6804 9.44161 17.2733 10.0288C18.9491 11.6782 20.6146 13.3327 22.2904 14.982C22.5121 15.2016 22.708 15.4314 22.6771 15.7684C22.641 16.182 22.3987 16.4527 21.9965 16.4425C21.5582 16.4271 21.5479 16.6467 21.5479 16.9684C21.5582 18.2144 21.553 19.4603 21.5479 20.7012C21.5479 21.5335 21.2901 21.7837 20.4547 21.7837C19.1296 21.7837 17.8044 21.7837 16.4793 21.7837Z" fill="#181818" />
            </g>
            <defs>
                <clipPath id="clip0_462_15505">
                    <rect width="33" height="48" fill="white" />
                </clipPath>
            </defs>
        </svg>