<svg width="37" height="38" viewBox="0 0 37 38" fill="none" xmlns="http://www.w3.org/2000/svg">
<g clip-path="url(#clip0_1917_3485)">
<path d="M17.2564 18.1621L2.20776 34.1639C2.43855 35.0241 2.94941 35.7829 3.65961 36.3203C4.36981 36.8577 5.23885 37.1431 6.12939 37.1314C6.83518 37.1328 7.52914 36.9501 8.14275 36.6013L25.0987 26.8517L17.2564 18.1621Z" fill="#EB3131"/>
<path d="M32.5169 15.4067L25.2046 11.168L16.9382 18.4802L25.2046 26.7466L32.5169 22.5079C33.1696 22.1628 33.7135 21.6431 34.0877 21.0067C34.462 20.3703 34.6519 19.6424 34.6363 18.9043C34.6238 18.186 34.421 17.4838 34.0487 16.8694C33.6764 16.255 33.1478 15.7503 32.5169 15.4067Z" fill="#F6B60B"/>
<path d="M2.2077 3.85352C2.11459 4.19872 2.07878 4.55686 2.10168 4.91366V33.1053C2.08428 33.462 2.12001 33.8193 2.2077 34.1654L17.7864 18.5868L2.2077 3.85352Z" fill="#5778C5"/>
<path d="M17.3651 19.0102L25.1015 11.2739L8.14281 1.4191C7.48618 1.08266 6.76113 0.901323 6.02343 0.889027C5.13325 0.877183 4.26449 1.16221 3.55433 1.69909C2.84418 2.23597 2.3331 2.99411 2.10181 3.8538L17.3651 19.0102Z" fill="#3BAD49"/>
</g>
<defs>
<clipPath id="clip0_1917_3485">
<rect width="36.2442" height="36.2442" fill="white" transform="translate(0.244141 0.887695)"/>
</clipPath>
</defs>
</svg>
