<svg width="22" height="22" viewBox="0 0 22 22" fill="currentColor" xmlns="http://www.w3.org/2000/svg">
<path d="M9.16683 16.5C10.7939 16.4997 12.3741 15.955 13.6557 14.9527L17.6854 18.9824L18.9816 17.6862L14.9519 13.6565C15.9547 12.3747 16.4998 10.7942 16.5002 9.16671C16.5002 5.12329 13.2102 1.83337 9.16683 1.83337C5.12341 1.83337 1.8335 5.12329 1.8335 9.16671C1.8335 13.2101 5.12341 16.5 9.16683 16.5ZM9.16683 3.66671C12.2001 3.66671 14.6668 6.13346 14.6668 9.16671C14.6668 12.2 12.2001 14.6667 9.16683 14.6667C6.13358 14.6667 3.66683 12.2 3.66683 9.16671C3.66683 6.13346 6.13358 3.66671 9.16683 3.66671Z" fill="white"/>
<path d="M10.461 7.87046C10.8084 8.21879 11 8.67896 11 9.16662H12.8333C12.8342 8.68485 12.7395 8.20769 12.5547 7.76273C12.37 7.31778 12.0989 6.91385 11.7572 6.57429C10.3693 5.18829 7.96309 5.18829 6.57617 6.57429L7.87051 7.87229C8.56717 7.17746 9.76801 7.17929 10.461 7.87046Z" fill="white"/>
</svg>
