<svg width="14" height="15" viewBox="0 0 14 15" fill="none" xmlns="http://www.w3.org/2000/svg">
    <path d="M11.8214 0H2.17857C1.66708 0 1.17654 0.19943 0.814865 0.554419C0.453188 0.909407 0.25 1.39087 0.25 1.8929V10.2588C0.250178 10.5924 0.340188 10.9201 0.510911 11.2086C0.681633 11.4971 0.927004 11.7361 1.22217 11.9016L6.5218 14.875C6.66736 14.9569 6.83222 15 7 15C7.16778 15 7.33264 14.9569 7.4782 14.875L12.7778 11.9016C13.0731 11.7362 13.3185 11.4972 13.4893 11.2087C13.66 10.9202 13.75 10.5925 13.75 10.2588V1.8929C13.75 1.39087 13.5468 0.909407 13.1851 0.554419C12.8235 0.19943 12.3329 0 11.8214 0ZM10.7823 5.99721L6.65186 10.0577L3.83388 7.28665C3.65542 7.10868 3.55584 6.86869 3.55686 6.61898C3.55787 6.36927 3.65938 6.13007 3.83928 5.9535C4.01918 5.77693 4.26289 5.67729 4.5173 5.6763C4.77172 5.67531 5.01622 5.77304 5.19755 5.94821L6.65186 7.37433L9.42517 4.65876C9.60649 4.4836 9.851 4.38586 10.1054 4.38686C10.3598 4.38785 10.6035 4.48748 10.7834 4.66406C10.9633 4.84063 11.0648 5.07983 11.0659 5.32954C11.0669 5.57925 10.9673 5.81923 10.7888 5.99721H10.7823Z" fill="#0186D8" />
</svg>